<svg width="32" height="32" viewBox="0 0 32 32" fill="none" xmlns="http://www.w3.org/2000/svg">
  <rect width="32" height="32" rx="8" fill="#000000"/>
  <path d="M16 8C12.6863 8 10 10.6863 10 14C10 17.3137 12.6863 20 16 20C19.3137 20 22 17.3137 22 14C22 10.6863 19.3137 8 16 8Z" stroke="white" stroke-width="2"/>
  <path d="M16 11V17M13 14H19" stroke="white" stroke-width="2" stroke-linecap="round"/>
  <path d="M8 22H24C24.5523 22 25 22.4477 25 23C25 23.5523 24.5523 24 24 24H8C7.44772 24 7 23.5523 7 23C7 22.4477 7.44772 22 8 22Z" fill="white"/>
</svg>